<?xml version="1.0" encoding="utf-8"?>
<!-- Generator: Adobe Illustrator 26.0.3, SVG Export Plug-In . SVG Version: 6.00 Build 0)  -->
<svg version="1.1" id="Layer_1" xmlns="http://www.w3.org/2000/svg" xmlns:xlink="http://www.w3.org/1999/xlink" x="0px" y="0px"
	 viewBox="0 0 302 302" style="enable-background:new 0 0 302 302;" xml:space="preserve">
<style type="text/css">
	.st0{fill:#0097DD;}
	.st1{fill:#FFFFFF;}
</style>
<path class="st0" d="M274.8,302H27.2C12.2,302,0,289.8,0,274.8V27.2C0,12.2,12.2,0,27.2,0h247.7c15,0,27.2,12.2,27.2,27.2v247.7
	C302,289.8,289.8,302,274.8,302z"/>
<g>
	<path class="st1" d="M123.5,250.6c-11.6,0-22-7.3-25.9-18.2l-20-57.4c-16-8.6-26.2-25.4-26.2-43.8c0-27.4,22.3-49.8,49.8-49.8h18.2
		c36.3,0,69.9-10.6,83.8-26.5c2.7-3.1,7.1-4.2,11-2.8s6.5,5.2,6.5,9.3v31.1c17.2,4.4,29.9,20,29.9,38.6s-12.7,34.1-29.9,38.6v31.1
		c0,4.1-2.6,7.9-6.5,9.3c-3.9,1.5-8.3,0.4-11-2.8c-9.7-11.1-29.1-19.6-52.2-23.7v39.5C151,238.2,138.7,250.6,123.5,250.6z
		 M100.8,180.9l15.6,44.8c1,2.9,3.9,5,7.1,5c4.2,0,7.6-3.4,7.6-7.6v-41.8c-3.8-0.2-7.7-0.4-11.6-0.4h-18.2
		C101.1,180.9,100.9,180.9,100.8,180.9z M151,163.3c19.3,3,36.5,8.8,49.8,16.7v-98C187.5,90,170.3,95.8,151,98.8V163.3z M89.6,158.6
		c3.7,1.6,7.6,2.3,11.6,2.3h18.2c3.9,0,7.8,0.1,11.6,0.3v-60.4c-3.8,0.2-7.7,0.3-11.6,0.3h-18.2c-16.5,0-29.9,13.4-29.9,29.9
		C71.4,143.1,78.5,153.9,89.6,158.6C89.5,158.6,89.6,158.6,89.6,158.6z M220.7,113.9v34.5c5.9-3.4,10-9.9,10-17.2
		C230.6,123.7,226.6,117.3,220.7,113.9z"/>
</g>
</svg>
